<mxfile host="app.diagrams.net" agent="Mozilla/5.0 (Macintosh; Intel Mac OS X 10_15_7) AppleWebKit/537.36 (KHTML, like Gecko) Chrome/134.0.0.0 Safari/537.36" version="26.1.1">
  <diagram id="l8hXMBHkgcEJcSW0mbfh" name="Page-1">
    <mxGraphModel dx="5945" dy="2460" grid="1" gridSize="10" guides="1" tooltips="1" connect="1" arrows="1" fold="1" page="1" pageScale="1" pageWidth="1169" pageHeight="827" math="0" shadow="0">
      <root>
        <mxCell id="0" />
        <mxCell id="1" parent="0" />
        <mxCell id="-a2DfulknnoLtpf2qesY-131" value="" style="whiteSpace=wrap;html=1;aspect=fixed;fillColor=none;" vertex="1" parent="1">
          <mxGeometry x="-180" y="150" width="1390" height="1390" as="geometry" />
        </mxCell>
        <mxCell id="PoxzqUH3-YCF-cj8GtX4-8" value="&lt;font style=&quot;font-size: 72px;&quot;&gt;VPS&lt;/font&gt;" style="text;html=1;align=center;verticalAlign=middle;whiteSpace=wrap;rounded=0;" parent="1" vertex="1">
          <mxGeometry x="273.75" y="30" width="482.5" height="120" as="geometry" />
        </mxCell>
        <mxCell id="PoxzqUH3-YCF-cj8GtX4-15" value="" style="group" parent="1" vertex="1" connectable="0">
          <mxGeometry x="320" y="760" width="120" height="120" as="geometry" />
        </mxCell>
        <mxCell id="PoxzqUH3-YCF-cj8GtX4-13" value="" style="whiteSpace=wrap;html=1;aspect=fixed;" parent="PoxzqUH3-YCF-cj8GtX4-15" vertex="1">
          <mxGeometry width="120" height="120" as="geometry" />
        </mxCell>
        <mxCell id="PoxzqUH3-YCF-cj8GtX4-10" value="" style="aspect=fixed;sketch=0;html=1;dashed=0;whitespace=wrap;verticalLabelPosition=bottom;verticalAlign=top;fillColor=#2875E2;strokeColor=#ffffff;points=[[0.005,0.63,0],[0.1,0.2,0],[0.9,0.2,0],[0.5,0,0],[0.995,0.63,0],[0.72,0.99,0],[0.5,1,0],[0.28,0.99,0]];shape=mxgraph.kubernetes.icon2;kubernetesLabel=1;prIcon=api" parent="PoxzqUH3-YCF-cj8GtX4-15" vertex="1">
          <mxGeometry x="29.685714285714287" y="39.10445103857567" width="58.11275964391692" height="55.79109792284867" as="geometry" />
        </mxCell>
        <mxCell id="PoxzqUH3-YCF-cj8GtX4-14" value="User service" style="text;html=1;align=center;verticalAlign=middle;whiteSpace=wrap;rounded=0;" parent="PoxzqUH3-YCF-cj8GtX4-15" vertex="1">
          <mxGeometry x="34.857142857142854" y="7.285714285714286" width="41.14285714285714" height="20.57142857142857" as="geometry" />
        </mxCell>
        <mxCell id="-a2DfulknnoLtpf2qesY-24" value="" style="group" vertex="1" connectable="0" parent="1">
          <mxGeometry x="120" y="760" width="120" height="120" as="geometry" />
        </mxCell>
        <mxCell id="-a2DfulknnoLtpf2qesY-25" value="" style="whiteSpace=wrap;html=1;aspect=fixed;" vertex="1" parent="-a2DfulknnoLtpf2qesY-24">
          <mxGeometry width="120" height="120" as="geometry" />
        </mxCell>
        <mxCell id="-a2DfulknnoLtpf2qesY-27" value="Auth service" style="text;html=1;align=center;verticalAlign=middle;whiteSpace=wrap;rounded=0;" vertex="1" parent="-a2DfulknnoLtpf2qesY-24">
          <mxGeometry x="39.42857142857142" y="9.000000000000002" width="41.14285714285714" height="20.57142857142857" as="geometry" />
        </mxCell>
        <mxCell id="-a2DfulknnoLtpf2qesY-28" value="" style="outlineConnect=0;dashed=0;verticalLabelPosition=bottom;verticalAlign=top;align=center;html=1;shape=mxgraph.aws3.add_on;fillColor=#759C3E;gradientColor=none;" vertex="1" parent="-a2DfulknnoLtpf2qesY-24">
          <mxGeometry x="33.75" y="54.000385756676565" width="52.49999999999999" height="30.97922848664689" as="geometry" />
        </mxCell>
        <mxCell id="-a2DfulknnoLtpf2qesY-30" value="" style="group" vertex="1" connectable="0" parent="1">
          <mxGeometry x="480" y="1000" width="120" height="120" as="geometry" />
        </mxCell>
        <mxCell id="-a2DfulknnoLtpf2qesY-31" value="" style="whiteSpace=wrap;html=1;aspect=fixed;" vertex="1" parent="-a2DfulknnoLtpf2qesY-30">
          <mxGeometry width="120" height="120" as="geometry" />
        </mxCell>
        <mxCell id="-a2DfulknnoLtpf2qesY-32" value="&amp;nbsp;gateway" style="text;html=1;align=center;verticalAlign=middle;whiteSpace=wrap;rounded=0;" vertex="1" parent="-a2DfulknnoLtpf2qesY-30">
          <mxGeometry x="39.42857142857142" y="9.000000000000002" width="41.14285714285714" height="20.57142857142857" as="geometry" />
        </mxCell>
        <mxCell id="-a2DfulknnoLtpf2qesY-35" value="" style="outlineConnect=0;dashed=0;verticalLabelPosition=bottom;verticalAlign=top;align=center;html=1;shape=mxgraph.aws3.customer_gateway;fillColor=#F58536;gradientColor=none;" vertex="1" parent="-a2DfulknnoLtpf2qesY-30">
          <mxGeometry x="35" y="50" width="55" height="50" as="geometry" />
        </mxCell>
        <mxCell id="-a2DfulknnoLtpf2qesY-36" value="" style="group" vertex="1" connectable="0" parent="1">
          <mxGeometry x="-80" y="760" width="120" height="120" as="geometry" />
        </mxCell>
        <mxCell id="-a2DfulknnoLtpf2qesY-37" value="" style="whiteSpace=wrap;html=1;aspect=fixed;" vertex="1" parent="-a2DfulknnoLtpf2qesY-36">
          <mxGeometry width="120" height="120" as="geometry" />
        </mxCell>
        <mxCell id="-a2DfulknnoLtpf2qesY-38" value="Monitoring&lt;div&gt;service&lt;/div&gt;" style="text;html=1;align=center;verticalAlign=middle;whiteSpace=wrap;rounded=0;" vertex="1" parent="-a2DfulknnoLtpf2qesY-36">
          <mxGeometry x="39.42857142857142" y="9.000000000000002" width="41.14285714285714" height="20.57142857142857" as="geometry" />
        </mxCell>
        <mxCell id="-a2DfulknnoLtpf2qesY-40" value="" style="aspect=fixed;sketch=0;html=1;dashed=0;whitespace=wrap;verticalLabelPosition=bottom;verticalAlign=top;fillColor=#2875E2;strokeColor=#ffffff;points=[[0.005,0.63,0],[0.1,0.2,0],[0.9,0.2,0],[0.5,0,0],[0.995,0.63,0],[0.72,0.99,0],[0.5,1,0],[0.28,0.99,0]];shape=mxgraph.kubernetes.icon2;kubernetesLabel=1;prIcon=api" vertex="1" parent="-a2DfulknnoLtpf2qesY-36">
          <mxGeometry x="31.88" y="40" width="56.25" height="54" as="geometry" />
        </mxCell>
        <mxCell id="-a2DfulknnoLtpf2qesY-41" value="" style="group" vertex="1" connectable="0" parent="1">
          <mxGeometry x="520" y="280" width="120" height="120" as="geometry" />
        </mxCell>
        <mxCell id="-a2DfulknnoLtpf2qesY-42" value="" style="whiteSpace=wrap;html=1;aspect=fixed;" vertex="1" parent="-a2DfulknnoLtpf2qesY-41">
          <mxGeometry width="120" height="120" as="geometry" />
        </mxCell>
        <mxCell id="-a2DfulknnoLtpf2qesY-43" value="SFTP Server" style="text;html=1;align=center;verticalAlign=middle;whiteSpace=wrap;rounded=0;" vertex="1" parent="-a2DfulknnoLtpf2qesY-41">
          <mxGeometry x="39.42857142857142" y="9.000000000000002" width="41.14285714285714" height="20.57142857142857" as="geometry" />
        </mxCell>
        <mxCell id="-a2DfulknnoLtpf2qesY-45" value="" style="sketch=0;outlineConnect=0;fontColor=#232F3E;gradientColor=none;fillColor=#01A88D;strokeColor=none;dashed=0;verticalLabelPosition=bottom;verticalAlign=top;align=center;html=1;fontSize=12;fontStyle=0;aspect=fixed;shape=mxgraph.aws4.transfer_for_sftp_resource;" vertex="1" parent="-a2DfulknnoLtpf2qesY-41">
          <mxGeometry x="33.690000000000055" y="50" width="52.62" height="54" as="geometry" />
        </mxCell>
        <mxCell id="-a2DfulknnoLtpf2qesY-46" value="" style="group" vertex="1" connectable="0" parent="1">
          <mxGeometry x="720" y="280" width="120" height="120" as="geometry" />
        </mxCell>
        <mxCell id="-a2DfulknnoLtpf2qesY-47" value="" style="whiteSpace=wrap;html=1;aspect=fixed;" vertex="1" parent="-a2DfulknnoLtpf2qesY-46">
          <mxGeometry width="120" height="120" as="geometry" />
        </mxCell>
        <mxCell id="-a2DfulknnoLtpf2qesY-48" value="MQTT Server" style="text;html=1;align=center;verticalAlign=middle;whiteSpace=wrap;rounded=0;" vertex="1" parent="-a2DfulknnoLtpf2qesY-46">
          <mxGeometry x="39.42857142857142" y="9.000000000000002" width="41.14285714285714" height="20.57142857142857" as="geometry" />
        </mxCell>
        <mxCell id="-a2DfulknnoLtpf2qesY-50" value="" style="outlineConnect=0;dashed=0;verticalLabelPosition=bottom;verticalAlign=top;align=center;html=1;shape=mxgraph.aws3.mqtt_protocol;fillColor=#5294CF;gradientColor=none;" vertex="1" parent="-a2DfulknnoLtpf2qesY-46">
          <mxGeometry x="29.25" y="50" width="61.5" height="60" as="geometry" />
        </mxCell>
        <mxCell id="-a2DfulknnoLtpf2qesY-51" value="" style="group" vertex="1" connectable="0" parent="1">
          <mxGeometry x="400" y="480" width="120" height="120" as="geometry" />
        </mxCell>
        <mxCell id="-a2DfulknnoLtpf2qesY-52" value="" style="whiteSpace=wrap;html=1;aspect=fixed;" vertex="1" parent="-a2DfulknnoLtpf2qesY-51">
          <mxGeometry width="120" height="120" as="geometry" />
        </mxCell>
        <mxCell id="-a2DfulknnoLtpf2qesY-53" value="Postgres" style="text;html=1;align=center;verticalAlign=middle;whiteSpace=wrap;rounded=0;" vertex="1" parent="-a2DfulknnoLtpf2qesY-51">
          <mxGeometry x="39.42857142857142" y="9.000000000000002" width="41.14285714285714" height="20.57142857142857" as="geometry" />
        </mxCell>
        <mxCell id="-a2DfulknnoLtpf2qesY-55" value="" style="image;aspect=fixed;html=1;points=[];align=center;fontSize=12;image=img/lib/azure2/databases/Azure_Database_PostgreSQL_Server.svg;" vertex="1" parent="-a2DfulknnoLtpf2qesY-51">
          <mxGeometry x="36" y="40" width="48" height="64" as="geometry" />
        </mxCell>
        <mxCell id="-a2DfulknnoLtpf2qesY-56" value="" style="group" vertex="1" connectable="0" parent="1">
          <mxGeometry x="520" y="760" width="120" height="120" as="geometry" />
        </mxCell>
        <mxCell id="-a2DfulknnoLtpf2qesY-57" value="" style="whiteSpace=wrap;html=1;aspect=fixed;" vertex="1" parent="-a2DfulknnoLtpf2qesY-56">
          <mxGeometry width="120" height="120" as="geometry" />
        </mxCell>
        <mxCell id="-a2DfulknnoLtpf2qesY-58" value="&lt;div&gt;SFTP&lt;/div&gt;&lt;div&gt;service&lt;/div&gt;" style="text;html=1;align=center;verticalAlign=middle;whiteSpace=wrap;rounded=0;" vertex="1" parent="-a2DfulknnoLtpf2qesY-56">
          <mxGeometry x="39.42857142857142" y="9.000000000000002" width="41.14285714285714" height="20.57142857142857" as="geometry" />
        </mxCell>
        <mxCell id="-a2DfulknnoLtpf2qesY-59" value="" style="aspect=fixed;sketch=0;html=1;dashed=0;whitespace=wrap;verticalLabelPosition=bottom;verticalAlign=top;fillColor=#2875E2;strokeColor=#ffffff;points=[[0.005,0.63,0],[0.1,0.2,0],[0.9,0.2,0],[0.5,0,0],[0.995,0.63,0],[0.72,0.99,0],[0.5,1,0],[0.28,0.99,0]];shape=mxgraph.kubernetes.icon2;kubernetesLabel=1;prIcon=api" vertex="1" parent="-a2DfulknnoLtpf2qesY-56">
          <mxGeometry x="31.88" y="40" width="56.25" height="54" as="geometry" />
        </mxCell>
        <mxCell id="-a2DfulknnoLtpf2qesY-60" value="" style="group" vertex="1" connectable="0" parent="1">
          <mxGeometry x="330" y="280" width="120" height="120" as="geometry" />
        </mxCell>
        <mxCell id="-a2DfulknnoLtpf2qesY-61" value="" style="whiteSpace=wrap;html=1;aspect=fixed;" vertex="1" parent="-a2DfulknnoLtpf2qesY-60">
          <mxGeometry width="120" height="120" as="geometry" />
        </mxCell>
        <mxCell id="-a2DfulknnoLtpf2qesY-62" value="&lt;div&gt;Files&lt;/div&gt;&lt;div&gt;service&lt;/div&gt;" style="text;html=1;align=center;verticalAlign=middle;whiteSpace=wrap;rounded=0;" vertex="1" parent="-a2DfulknnoLtpf2qesY-60">
          <mxGeometry x="39.42857142857142" y="9.000000000000002" width="41.14285714285714" height="20.57142857142857" as="geometry" />
        </mxCell>
        <mxCell id="-a2DfulknnoLtpf2qesY-63" value="" style="aspect=fixed;sketch=0;html=1;dashed=0;whitespace=wrap;verticalLabelPosition=bottom;verticalAlign=top;fillColor=#2875E2;strokeColor=#ffffff;points=[[0.005,0.63,0],[0.1,0.2,0],[0.9,0.2,0],[0.5,0,0],[0.995,0.63,0],[0.72,0.99,0],[0.5,1,0],[0.28,0.99,0]];shape=mxgraph.kubernetes.icon2;kubernetesLabel=1;prIcon=api" vertex="1" parent="-a2DfulknnoLtpf2qesY-60">
          <mxGeometry x="31.88" y="40" width="56.25" height="54" as="geometry" />
        </mxCell>
        <mxCell id="-a2DfulknnoLtpf2qesY-64" value="" style="group" vertex="1" connectable="0" parent="1">
          <mxGeometry x="920" y="760" width="120" height="120" as="geometry" />
        </mxCell>
        <mxCell id="-a2DfulknnoLtpf2qesY-65" value="" style="whiteSpace=wrap;html=1;aspect=fixed;" vertex="1" parent="-a2DfulknnoLtpf2qesY-64">
          <mxGeometry width="120" height="120" as="geometry" />
        </mxCell>
        <mxCell id="-a2DfulknnoLtpf2qesY-66" value="Hadware&lt;div&gt;Service&lt;/div&gt;" style="text;html=1;align=center;verticalAlign=middle;whiteSpace=wrap;rounded=0;" vertex="1" parent="-a2DfulknnoLtpf2qesY-64">
          <mxGeometry x="39.42857142857142" y="9.000000000000002" width="41.14285714285714" height="20.57142857142857" as="geometry" />
        </mxCell>
        <mxCell id="-a2DfulknnoLtpf2qesY-67" value="" style="aspect=fixed;sketch=0;html=1;dashed=0;whitespace=wrap;verticalLabelPosition=bottom;verticalAlign=top;fillColor=#2875E2;strokeColor=#ffffff;points=[[0.005,0.63,0],[0.1,0.2,0],[0.9,0.2,0],[0.5,0,0],[0.995,0.63,0],[0.72,0.99,0],[0.5,1,0],[0.28,0.99,0]];shape=mxgraph.kubernetes.icon2;kubernetesLabel=1;prIcon=api" vertex="1" parent="-a2DfulknnoLtpf2qesY-64">
          <mxGeometry x="31.88" y="40" width="56.25" height="54" as="geometry" />
        </mxCell>
        <mxCell id="-a2DfulknnoLtpf2qesY-68" value="" style="group" vertex="1" connectable="0" parent="1">
          <mxGeometry x="720" y="760" width="120" height="120" as="geometry" />
        </mxCell>
        <mxCell id="-a2DfulknnoLtpf2qesY-69" value="" style="whiteSpace=wrap;html=1;aspect=fixed;" vertex="1" parent="-a2DfulknnoLtpf2qesY-68">
          <mxGeometry width="120" height="120" as="geometry" />
        </mxCell>
        <mxCell id="-a2DfulknnoLtpf2qesY-70" value="MQTT&lt;div&gt;Service&lt;/div&gt;" style="text;html=1;align=center;verticalAlign=middle;whiteSpace=wrap;rounded=0;" vertex="1" parent="-a2DfulknnoLtpf2qesY-68">
          <mxGeometry x="39.42857142857142" y="9.000000000000002" width="41.14285714285714" height="20.57142857142857" as="geometry" />
        </mxCell>
        <mxCell id="-a2DfulknnoLtpf2qesY-71" value="" style="aspect=fixed;sketch=0;html=1;dashed=0;whitespace=wrap;verticalLabelPosition=bottom;verticalAlign=top;fillColor=#2875E2;strokeColor=#ffffff;points=[[0.005,0.63,0],[0.1,0.2,0],[0.9,0.2,0],[0.5,0,0],[0.995,0.63,0],[0.72,0.99,0],[0.5,1,0],[0.28,0.99,0]];shape=mxgraph.kubernetes.icon2;kubernetesLabel=1;prIcon=api" vertex="1" parent="-a2DfulknnoLtpf2qesY-68">
          <mxGeometry x="31.88" y="40" width="56.25" height="54" as="geometry" />
        </mxCell>
        <mxCell id="-a2DfulknnoLtpf2qesY-73" value="" style="group" vertex="1" connectable="0" parent="1">
          <mxGeometry x="480" y="1640" width="120" height="121" as="geometry" />
        </mxCell>
        <mxCell id="-a2DfulknnoLtpf2qesY-74" value="" style="whiteSpace=wrap;html=1;aspect=fixed;" vertex="1" parent="-a2DfulknnoLtpf2qesY-73">
          <mxGeometry width="120" height="120" as="geometry" />
        </mxCell>
        <mxCell id="-a2DfulknnoLtpf2qesY-75" value="FRONTEND" style="text;html=1;align=center;verticalAlign=middle;whiteSpace=wrap;rounded=0;" vertex="1" parent="-a2DfulknnoLtpf2qesY-73">
          <mxGeometry x="39.42857142857142" y="9.075000000000001" width="41.14285714285714" height="20.74285714285714" as="geometry" />
        </mxCell>
        <mxCell id="-a2DfulknnoLtpf2qesY-78" value="" style="points=[];aspect=fixed;html=1;align=center;shadow=0;dashed=0;fillColor=#FF6A00;strokeColor=none;shape=mxgraph.alibaba_cloud.nodejs_performance_platform;" vertex="1" parent="-a2DfulknnoLtpf2qesY-73">
          <mxGeometry x="38.57" y="40.33333333333333" width="42" height="47.400000000000006" as="geometry" />
        </mxCell>
        <mxCell id="-a2DfulknnoLtpf2qesY-82" style="edgeStyle=orthogonalEdgeStyle;rounded=0;orthogonalLoop=1;jettySize=auto;html=1;exitX=0.5;exitY=0;exitDx=0;exitDy=0;entryX=0;entryY=0.5;entryDx=0;entryDy=0;" edge="1" parent="1" source="-a2DfulknnoLtpf2qesY-25" target="-a2DfulknnoLtpf2qesY-52">
          <mxGeometry relative="1" as="geometry" />
        </mxCell>
        <mxCell id="-a2DfulknnoLtpf2qesY-85" style="edgeStyle=orthogonalEdgeStyle;rounded=0;orthogonalLoop=1;jettySize=auto;html=1;exitX=0;exitY=0.25;exitDx=0;exitDy=0;entryX=0.25;entryY=1;entryDx=0;entryDy=0;" edge="1" parent="1" source="-a2DfulknnoLtpf2qesY-31" target="PoxzqUH3-YCF-cj8GtX4-13">
          <mxGeometry relative="1" as="geometry" />
        </mxCell>
        <mxCell id="-a2DfulknnoLtpf2qesY-86" style="edgeStyle=orthogonalEdgeStyle;rounded=0;orthogonalLoop=1;jettySize=auto;html=1;exitX=0.25;exitY=1;exitDx=0;exitDy=0;entryX=0;entryY=0.25;entryDx=0;entryDy=0;" edge="1" parent="1" source="PoxzqUH3-YCF-cj8GtX4-13" target="-a2DfulknnoLtpf2qesY-31">
          <mxGeometry relative="1" as="geometry" />
        </mxCell>
        <mxCell id="-a2DfulknnoLtpf2qesY-90" style="edgeStyle=orthogonalEdgeStyle;rounded=0;orthogonalLoop=1;jettySize=auto;html=1;exitX=1;exitY=0.5;exitDx=0;exitDy=0;entryX=0;entryY=0.5;entryDx=0;entryDy=0;" edge="1" parent="1" source="PoxzqUH3-YCF-cj8GtX4-13" target="-a2DfulknnoLtpf2qesY-57">
          <mxGeometry relative="1" as="geometry" />
        </mxCell>
        <mxCell id="-a2DfulknnoLtpf2qesY-91" style="edgeStyle=orthogonalEdgeStyle;rounded=0;orthogonalLoop=1;jettySize=auto;html=1;exitX=0;exitY=0.5;exitDx=0;exitDy=0;entryX=1;entryY=0.5;entryDx=0;entryDy=0;" edge="1" parent="1" source="-a2DfulknnoLtpf2qesY-57" target="PoxzqUH3-YCF-cj8GtX4-13">
          <mxGeometry relative="1" as="geometry" />
        </mxCell>
        <mxCell id="-a2DfulknnoLtpf2qesY-92" style="edgeStyle=orthogonalEdgeStyle;rounded=0;orthogonalLoop=1;jettySize=auto;html=1;exitX=0.5;exitY=0;exitDx=0;exitDy=0;entryX=0.5;entryY=1;entryDx=0;entryDy=0;" edge="1" parent="1" source="-a2DfulknnoLtpf2qesY-57" target="-a2DfulknnoLtpf2qesY-42">
          <mxGeometry relative="1" as="geometry" />
        </mxCell>
        <mxCell id="-a2DfulknnoLtpf2qesY-93" style="edgeStyle=orthogonalEdgeStyle;rounded=0;orthogonalLoop=1;jettySize=auto;html=1;exitX=0;exitY=0;exitDx=0;exitDy=0;entryX=0;entryY=0.75;entryDx=0;entryDy=0;" edge="1" parent="1" source="PoxzqUH3-YCF-cj8GtX4-13" target="-a2DfulknnoLtpf2qesY-52">
          <mxGeometry relative="1" as="geometry" />
        </mxCell>
        <mxCell id="-a2DfulknnoLtpf2qesY-94" style="edgeStyle=orthogonalEdgeStyle;rounded=0;orthogonalLoop=1;jettySize=auto;html=1;exitX=0.75;exitY=1;exitDx=0;exitDy=0;entryX=0.25;entryY=1;entryDx=0;entryDy=0;" edge="1" parent="1" source="PoxzqUH3-YCF-cj8GtX4-13" target="-a2DfulknnoLtpf2qesY-69">
          <mxGeometry relative="1" as="geometry" />
        </mxCell>
        <mxCell id="-a2DfulknnoLtpf2qesY-95" style="edgeStyle=orthogonalEdgeStyle;rounded=0;orthogonalLoop=1;jettySize=auto;html=1;exitX=0.25;exitY=1;exitDx=0;exitDy=0;entryX=0.75;entryY=1;entryDx=0;entryDy=0;" edge="1" parent="1" source="-a2DfulknnoLtpf2qesY-69" target="PoxzqUH3-YCF-cj8GtX4-13">
          <mxGeometry relative="1" as="geometry" />
        </mxCell>
        <mxCell id="-a2DfulknnoLtpf2qesY-96" style="edgeStyle=orthogonalEdgeStyle;rounded=0;orthogonalLoop=1;jettySize=auto;html=1;exitX=0.5;exitY=0;exitDx=0;exitDy=0;entryX=0.5;entryY=1;entryDx=0;entryDy=0;" edge="1" parent="1" source="-a2DfulknnoLtpf2qesY-69" target="-a2DfulknnoLtpf2qesY-47">
          <mxGeometry relative="1" as="geometry" />
        </mxCell>
        <mxCell id="-a2DfulknnoLtpf2qesY-98" style="edgeStyle=orthogonalEdgeStyle;rounded=0;orthogonalLoop=1;jettySize=auto;html=1;exitX=0.5;exitY=1;exitDx=0;exitDy=0;entryX=0.5;entryY=1;entryDx=0;entryDy=0;" edge="1" parent="1" source="PoxzqUH3-YCF-cj8GtX4-13" target="-a2DfulknnoLtpf2qesY-65">
          <mxGeometry relative="1" as="geometry">
            <Array as="points">
              <mxPoint x="380" y="920" />
              <mxPoint x="980" y="920" />
            </Array>
          </mxGeometry>
        </mxCell>
        <mxCell id="-a2DfulknnoLtpf2qesY-99" style="edgeStyle=orthogonalEdgeStyle;rounded=0;orthogonalLoop=1;jettySize=auto;html=1;exitX=0.5;exitY=1;exitDx=0;exitDy=0;entryX=0.5;entryY=1;entryDx=0;entryDy=0;" edge="1" parent="1" source="-a2DfulknnoLtpf2qesY-65" target="PoxzqUH3-YCF-cj8GtX4-13">
          <mxGeometry relative="1" as="geometry">
            <Array as="points">
              <mxPoint x="980" y="920" />
              <mxPoint x="380" y="920" />
            </Array>
          </mxGeometry>
        </mxCell>
        <mxCell id="-a2DfulknnoLtpf2qesY-100" style="edgeStyle=orthogonalEdgeStyle;rounded=0;orthogonalLoop=1;jettySize=auto;html=1;exitX=0;exitY=0.75;exitDx=0;exitDy=0;entryX=0.5;entryY=1;entryDx=0;entryDy=0;" edge="1" parent="1" source="-a2DfulknnoLtpf2qesY-31" target="-a2DfulknnoLtpf2qesY-37">
          <mxGeometry relative="1" as="geometry" />
        </mxCell>
        <mxCell id="-a2DfulknnoLtpf2qesY-102" style="edgeStyle=orthogonalEdgeStyle;rounded=0;orthogonalLoop=1;jettySize=auto;html=1;exitX=0.5;exitY=0;exitDx=0;exitDy=0;entryX=0;entryY=0.25;entryDx=0;entryDy=0;" edge="1" parent="1" source="-a2DfulknnoLtpf2qesY-37" target="-a2DfulknnoLtpf2qesY-52">
          <mxGeometry relative="1" as="geometry" />
        </mxCell>
        <mxCell id="-a2DfulknnoLtpf2qesY-103" style="edgeStyle=orthogonalEdgeStyle;rounded=0;orthogonalLoop=1;jettySize=auto;html=1;exitX=1;exitY=0.5;exitDx=0;exitDy=0;entryX=0;entryY=0.5;entryDx=0;entryDy=0;" edge="1" parent="1" source="-a2DfulknnoLtpf2qesY-61" target="-a2DfulknnoLtpf2qesY-42">
          <mxGeometry relative="1" as="geometry" />
        </mxCell>
        <mxCell id="-a2DfulknnoLtpf2qesY-104" style="edgeStyle=orthogonalEdgeStyle;rounded=0;orthogonalLoop=1;jettySize=auto;html=1;exitX=0;exitY=0.5;exitDx=0;exitDy=0;entryX=1;entryY=0.5;entryDx=0;entryDy=0;" edge="1" parent="1" source="-a2DfulknnoLtpf2qesY-42" target="-a2DfulknnoLtpf2qesY-61">
          <mxGeometry relative="1" as="geometry" />
        </mxCell>
        <mxCell id="-a2DfulknnoLtpf2qesY-105" style="edgeStyle=orthogonalEdgeStyle;rounded=0;orthogonalLoop=1;jettySize=auto;html=1;exitX=0.5;exitY=1;exitDx=0;exitDy=0;entryX=0.5;entryY=0;entryDx=0;entryDy=0;" edge="1" parent="1" source="-a2DfulknnoLtpf2qesY-61" target="-a2DfulknnoLtpf2qesY-52">
          <mxGeometry relative="1" as="geometry" />
        </mxCell>
        <mxCell id="-a2DfulknnoLtpf2qesY-106" style="edgeStyle=orthogonalEdgeStyle;rounded=0;orthogonalLoop=1;jettySize=auto;html=1;exitX=0.5;exitY=1;exitDx=0;exitDy=0;entryX=0;entryY=0.5;entryDx=0;entryDy=0;" edge="1" parent="1" source="-a2DfulknnoLtpf2qesY-25" target="-a2DfulknnoLtpf2qesY-31">
          <mxGeometry relative="1" as="geometry" />
        </mxCell>
        <mxCell id="-a2DfulknnoLtpf2qesY-107" style="edgeStyle=orthogonalEdgeStyle;rounded=0;orthogonalLoop=1;jettySize=auto;html=1;exitX=0;exitY=0.5;exitDx=0;exitDy=0;entryX=0.5;entryY=1;entryDx=0;entryDy=0;" edge="1" parent="1" source="-a2DfulknnoLtpf2qesY-31" target="-a2DfulknnoLtpf2qesY-25">
          <mxGeometry relative="1" as="geometry" />
        </mxCell>
        <mxCell id="-a2DfulknnoLtpf2qesY-108" style="edgeStyle=orthogonalEdgeStyle;rounded=0;orthogonalLoop=1;jettySize=auto;html=1;exitX=0.5;exitY=1;exitDx=0;exitDy=0;entryX=0;entryY=0.75;entryDx=0;entryDy=0;" edge="1" parent="1" source="-a2DfulknnoLtpf2qesY-37" target="-a2DfulknnoLtpf2qesY-31">
          <mxGeometry relative="1" as="geometry" />
        </mxCell>
        <mxCell id="-a2DfulknnoLtpf2qesY-111" style="edgeStyle=orthogonalEdgeStyle;rounded=0;orthogonalLoop=1;jettySize=auto;html=1;exitX=0.25;exitY=0;exitDx=0;exitDy=0;entryX=1;entryY=0.75;entryDx=0;entryDy=0;" edge="1" parent="1" source="-a2DfulknnoLtpf2qesY-69" target="-a2DfulknnoLtpf2qesY-52">
          <mxGeometry relative="1" as="geometry" />
        </mxCell>
        <mxCell id="-a2DfulknnoLtpf2qesY-118" value="" style="group" vertex="1" connectable="0" parent="1">
          <mxGeometry x="1250" y="1310" width="120" height="121" as="geometry" />
        </mxCell>
        <mxCell id="-a2DfulknnoLtpf2qesY-119" value="" style="whiteSpace=wrap;html=1;aspect=fixed;" vertex="1" parent="-a2DfulknnoLtpf2qesY-118">
          <mxGeometry width="120" height="120" as="geometry" />
        </mxCell>
        <mxCell id="-a2DfulknnoLtpf2qesY-120" value="Gateway" style="text;html=1;align=center;verticalAlign=middle;whiteSpace=wrap;rounded=0;" vertex="1" parent="-a2DfulknnoLtpf2qesY-118">
          <mxGeometry x="39.42857142857142" y="9.075000000000001" width="41.14285714285714" height="20.74285714285714" as="geometry" />
        </mxCell>
        <mxCell id="-a2DfulknnoLtpf2qesY-122" value="" style="image;html=1;image=img/lib/clip_art/computers/Harddrive_128x128.png" vertex="1" parent="-a2DfulknnoLtpf2qesY-118">
          <mxGeometry x="30" y="40" width="60" height="60" as="geometry" />
        </mxCell>
        <mxCell id="-a2DfulknnoLtpf2qesY-123" style="edgeStyle=orthogonalEdgeStyle;rounded=0;orthogonalLoop=1;jettySize=auto;html=1;exitX=0.75;exitY=0;exitDx=0;exitDy=0;entryX=0.75;entryY=1;entryDx=0;entryDy=0;" edge="1" parent="1" source="-a2DfulknnoLtpf2qesY-119" target="-a2DfulknnoLtpf2qesY-65">
          <mxGeometry relative="1" as="geometry" />
        </mxCell>
        <mxCell id="-a2DfulknnoLtpf2qesY-125" style="edgeStyle=orthogonalEdgeStyle;rounded=0;orthogonalLoop=1;jettySize=auto;html=1;exitX=1;exitY=0;exitDx=0;exitDy=0;entryX=1;entryY=0.75;entryDx=0;entryDy=0;" edge="1" parent="1" source="-a2DfulknnoLtpf2qesY-119" target="-a2DfulknnoLtpf2qesY-47">
          <mxGeometry relative="1" as="geometry" />
        </mxCell>
        <mxCell id="-a2DfulknnoLtpf2qesY-127" style="edgeStyle=orthogonalEdgeStyle;rounded=0;orthogonalLoop=1;jettySize=auto;html=1;exitX=0.25;exitY=0;exitDx=0;exitDy=0;entryX=1;entryY=0.5;entryDx=0;entryDy=0;" edge="1" parent="1" source="-a2DfulknnoLtpf2qesY-57" target="-a2DfulknnoLtpf2qesY-52">
          <mxGeometry relative="1" as="geometry" />
        </mxCell>
        <mxCell id="-a2DfulknnoLtpf2qesY-130" value="" style="image;sketch=0;aspect=fixed;html=1;points=[];align=center;fontSize=12;image=img/lib/mscae/Docker.svg;" vertex="1" parent="1">
          <mxGeometry x="40" y="1190" width="317.07" height="260" as="geometry" />
        </mxCell>
        <mxCell id="-a2DfulknnoLtpf2qesY-133" style="edgeStyle=orthogonalEdgeStyle;rounded=0;orthogonalLoop=1;jettySize=auto;html=1;exitX=1;exitY=0.25;exitDx=0;exitDy=0;entryX=0.5;entryY=0;entryDx=0;entryDy=0;" edge="1" parent="1" source="-a2DfulknnoLtpf2qesY-119" target="-a2DfulknnoLtpf2qesY-42">
          <mxGeometry relative="1" as="geometry">
            <Array as="points">
              <mxPoint x="1390" y="1340" />
              <mxPoint x="1390" y="210" />
              <mxPoint x="580" y="210" />
            </Array>
          </mxGeometry>
        </mxCell>
        <mxCell id="-a2DfulknnoLtpf2qesY-80" style="edgeStyle=orthogonalEdgeStyle;rounded=0;orthogonalLoop=1;jettySize=auto;html=1;exitX=0.5;exitY=1;exitDx=0;exitDy=0;entryX=0.5;entryY=0;entryDx=0;entryDy=0;" edge="1" parent="1" source="-a2DfulknnoLtpf2qesY-31" target="-a2DfulknnoLtpf2qesY-74">
          <mxGeometry relative="1" as="geometry">
            <mxPoint x="540.2857142857142" y="1240" as="targetPoint" />
          </mxGeometry>
        </mxCell>
        <mxCell id="-a2DfulknnoLtpf2qesY-134" style="edgeStyle=orthogonalEdgeStyle;rounded=0;orthogonalLoop=1;jettySize=auto;html=1;exitX=0.5;exitY=0;exitDx=0;exitDy=0;entryX=0.5;entryY=1;entryDx=0;entryDy=0;" edge="1" parent="1" source="-a2DfulknnoLtpf2qesY-74" target="-a2DfulknnoLtpf2qesY-31">
          <mxGeometry relative="1" as="geometry" />
        </mxCell>
      </root>
    </mxGraphModel>
  </diagram>
</mxfile>
